#define bullet_width 7
#define bullet_height 7
static unsigned char bullet_bits[] = {
   0x7f, 0x41, 0x41, 0x41, 0x41, 0x41, 0x7f };
